<svg xmlns="http://www.w3.org/2000/svg" viewBox="0 0 1024 1024"><path fill="#00dc82" d="M170.667 896c-46.934 0-85.334-38.4-85.334-85.333V213.333c0-46.933 38.4-85.333 85.334-85.333h682.666c46.934 0 85.334 38.4 85.334 85.333v597.334c0 46.933-38.4 85.333-85.334 85.333zm0-85.333h682.666v-512H170.667zM576 725.333c-12.8 0-21.333-8.533-21.333-21.333v-42.667c0-12.8 8.533-21.333 21.333-21.333h170.667c12.8 0 21.333 8.533 21.333 21.333V704c0 12.8-8.533 21.333-21.333 21.333zm-337.067 0L409.6 554.667 238.933 384H358.4l140.8 140.8c17.067 17.067 17.067 42.667 0 59.733l-140.8 140.8z"/></svg>