<svg xmlns="http://www.w3.org/2000/svg" width="200" height="200" class="icon" viewBox="0 0 1024 1024"><path fill="#7986CB" d="m332.725 412.535 171.001-98.727a13.83 13.83 0 0 1 13.834 0l171.008 98.727a13.84 13.84 0 0 1 6.916 11.981v197.455a13.86 13.86 0 0 1-6.92 11.98L517.56 732.68a13.83 13.83 0 0 1-13.834 0l-171.001-98.727a13.84 13.84 0 0 1-6.915-11.981V424.516a13.85 13.85 0 0 1 6.915-11.98"/><path fill="#3F51B5" d="M955.266 502.477 750.95 147.037c-7.42-12.852-21.128-22.33-35.97-22.33H306.33c-14.845 0-28.556 9.478-35.977 22.33L66.038 501.701c-7.42 12.855-7.42 29.082 0 41.933L270.353 896.17c7.42 12.85 21.132 19.422 35.977 19.422h408.65c14.838 0 28.553-6.373 35.97-19.228l204.316-353.11c7.427-12.847 7.427-27.92 0-40.768M786.084 673.41c0 5.222-3.144 10.059-7.677 12.673l-260.25 150.153a14.81 14.81 0 0 1-14.724 0L242.982 686.083c-4.527-2.614-7.694-7.444-7.694-12.673V373.1c0-5.229 3.12-10.059 7.65-12.677L503.18 210.272a14.78 14.78 0 0 1 14.715 0l260.471 150.152c4.53 2.618 7.718 7.448 7.718 12.677z"/></svg>