<svg xmlns="http://www.w3.org/2000/svg" viewBox="0 0 1297 1024"><path d="M575.884 849.242A102.534 102.534 0 0 0 648.45 1024a102.534 102.534 0 1 0-72.566-174.758m434.165-232.784-.887-1.775a419.49 419.49 0 0 0-359.483-205.067A419.49 419.49 0 0 0 289.854 614c-10.513 14.335-16.793 31.743-16.793 50.994 0 47.444 37.682 85.945 84.376 85.945a83.28 83.28 0 0 0 63.896-30.241 11.26 11.26 0 0 0 5.597-5.052c11.469-21.162 25.804-40.55 42.666-57.615a250.874 250.874 0 0 1 359.346-.342c15.019 15.292 27.58 31.88 37.956 49.697.41.546.887.683 1.365 1.092 15.018 25.258 42.188 40.823 71.405 40.96 46.557 0 84.307-38.502 84.307-86.15a86.9 86.9 0 0 0-13.926-46.83m268.486-289.716a834 834 0 0 0-66.763-80.143C901.03-82.233 395.528-82.233 84.718 246.804a804 804 0 0 0-58.298 69.289A95.9 95.9 0 0 0 0 382.719c-.136 24.644 9.08 48.332 25.668 65.876s39.116 27.51 62.667 27.579c26.555 0 49.902-12.63 66.149-32.085 1.229-.682 2.526-1.16 3.413-2.457 16.11-21.981 33.313-43.007 51.95-62.53 241.658-255.79 635.342-255.79 877 0 21.162 22.39 40.754 46.42 58.57 71.814a7.5 7.5 0 0 0 4.574 2.867c15.565 14.813 35.908 24.098 58.572 24.098a88.47 88.47 0 0 0 79.187-51.609 96.6 96.6 0 0 0-8.601-97.346c-.273-.887-.069-1.638-.683-2.184z"/></svg>