<svg xmlns="http://www.w3.org/2000/svg" viewBox="0 0 1024 1024"><path d="M909 959H115a50 50 0 0 1-50-50V115a50 50 0 0 1 50-50h794a50 50 0 0 1 50 50v794a50 50 0 0 1-50 50m-10-819a15 15 0 0 0-15-15H140a15 15 0 0 0-15 15v744a15 15 0 0 0 15 15h744a15 15 0 0 0 15-15zm-89.938 611H335a30 30 0 0 1 0-60h474.062a30 30 0 1 1 0 60m0-209H335a30 30 0 0 1 0-60h474.062a30 30 0 1 1 0 60m0-208H335a30 30 0 0 1 0-60h474.062a30 30 0 1 1 0 60M215 751a30 30 0 1 1 30-30 30 30 0 0 1-30 30m0-209a30 30 0 1 1 30-30 30 30 0 0 1-30 30m0-208a30 30 0 1 1 30-30 30 30 0 0 1-30 30"/></svg>
