<svg xmlns="http://www.w3.org/2000/svg" width="200" height="200" class="icon" viewBox="0 0 1024 1024"><path fill="#7CCDFF" d="M923.136 969.557H193.024V59.904h521.387l208.725 207.701z"/><path fill="#4191FB" d="m912.896 253.952 2.56 671.915a27.897 27.897 0 0 1-27.99 27.989H237.91a27.897 27.897 0 0 1-27.989-27.99V96.94a27.897 27.897 0 0 1 27.99-27.99l493.397-1.024-38.912-39.936h-453.12c-36.352 0-65.707 29.355-65.707 65.707V929.28c0 36.352 29.355 65.707 65.707 65.707H886.1c36.352 0 65.707-29.355 65.707-65.707V293.888z"/><path fill="#C7E2FF" d="M692.395 222.72c0 39.424 31.914 71.339 71.338 71.339H951.98L692.395 27.989z"/><path fill="#4191FB" d="M557.568 482.304H158.72c-50.347 0-91.136-40.79-91.136-91.136v-60.245c0-50.347 40.79-91.136 91.136-91.136h398.848c50.347 0 91.136 40.789 91.136 91.136v60.245c0 50.347-40.79 91.136-91.136 91.136"/><path fill="#FFF" d="m112.81 391.85 45.74-2.9c1.023 7.509 3.071 13.14 5.973 17.066 4.949 6.315 12.117 9.387 21.162 9.387 6.827 0 12.118-1.536 15.872-4.779q5.632-4.864 5.632-11.264c0-4.096-1.706-7.68-5.29-10.752-3.584-3.243-11.776-6.144-24.576-9.045-21.163-4.779-36.182-11.094-45.227-18.944-9.045-7.851-13.653-17.92-13.653-30.038 0-8.021 2.389-15.53 6.997-22.698s11.605-12.63 20.992-16.726 22.016-6.144 38.23-6.144c19.967 0 35.157 3.755 45.567 11.094s16.726 19.114 18.603 35.328l-45.397 2.73q-1.793-10.496-7.68-15.36c-5.887-4.864-9.216-4.778-16.043-4.778-5.632 0-9.728 1.194-12.63 3.584-2.9 2.389-4.266 5.29-4.266 8.704q0 3.84 3.584 6.656c2.219 2.048 7.68 3.925 16.213 5.802 20.992 4.608 36.182 9.046 45.227 13.824 9.045 4.608 15.701 10.411 19.797 17.238q6.144 10.239 6.144 23.04c0 10.069-2.73 19.114-8.362 27.648-5.462 8.362-13.312 14.848-23.211 19.114-9.899 4.438-22.357 6.486-37.547 6.486-26.453 0-44.885-5.12-54.954-15.36-9.728-10.24-15.531-23.211-16.896-38.912m150.187-104.277h50.347l34.987 112.128 34.645-112.128h48.81l-57.855 155.819h-52.224zm255.488 99.328v-32.426h74.411v66.389c-14.165 9.728-26.795 16.384-37.717 19.797-10.923 3.584-23.894 5.291-38.912 5.291-18.432 0-33.622-3.072-45.227-9.387q-17.407-9.471-27.136-28.16c-9.729-18.689-9.557-26.794-9.557-42.837 0-17.067 3.584-31.744 10.581-44.373s17.237-22.187 30.89-28.672c10.582-4.95 24.747-7.51 42.667-7.51 17.238 0 30.038 1.536 38.571 4.608s15.701 8.022 21.163 14.507c5.632 6.485 9.898 14.848 12.629 24.917l-46.421 8.363c-1.878-5.803-5.12-10.41-9.728-13.483q-6.912-4.608-17.408-4.608c-10.582 0-18.944 3.584-25.259 10.923s-9.387 18.944-9.387 34.816c0 16.896 3.243 28.843 9.558 36.181 6.314 7.168 15.189 10.752 26.453 10.752a50 50 0 0 0 15.36-2.389c4.95-1.536 10.41-4.267 16.725-8.021V386.9z"/><path fill="#4191FB" d="M701.27 685.739c-14.337 0-26.795 9.045-31.745 21.674h-76.97l54.442-54.442a33.98 33.98 0 0 0 37.718-7.168c13.312-13.312 13.312-34.816 0-48.128s-34.816-13.312-48.128 0a33.98 33.98 0 0 0-7.168 37.717l-54.443 54.443v-76.971c12.63-4.95 21.675-17.237 21.675-31.744 0-18.773-15.19-33.963-33.963-33.963s-33.963 15.19-33.963 33.963c0 14.336 9.046 26.795 21.675 31.744v76.97l-54.443-54.442a33.98 33.98 0 0 0-7.168-37.717c-13.312-13.312-34.816-13.312-48.128 0s-13.312 34.816 0 48.128a33.98 33.98 0 0 0 37.718 7.168l54.442 54.442h-76.97c-4.95-12.629-17.238-21.674-31.744-21.674-18.774 0-33.963 15.189-33.963 33.962s15.19 33.963 33.963 33.963c14.336 0 26.794-9.045 31.744-21.675h76.97l-54.442 54.443a33.98 33.98 0 0 0-37.718 7.168c-13.312 13.312-13.312 34.816 0 48.128s34.816 13.312 48.128 0a33.98 33.98 0 0 0 7.168-37.717l54.443-54.443v76.97c-12.63 4.95-21.675 17.238-21.675 31.745 0 18.773 15.19 33.962 33.963 33.962s33.963-15.189 33.963-33.962c0-14.336-9.046-26.795-21.675-31.744v-76.971l54.443 54.443a33.98 33.98 0 0 0 7.168 37.717c13.312 13.312 34.816 13.312 48.128 0s13.312-34.816 0-48.128a33.98 33.98 0 0 0-37.718-7.168l-54.442-54.443h76.97c4.95 12.63 17.238 21.675 31.744 21.675 18.774 0 33.963-15.19 33.963-33.963s-15.36-33.962-33.963-33.962"/></svg>