<svg xmlns="http://www.w3.org/2000/svg" viewBox="0 0 1675 1024"><path fill="#38bdf8" d="M837.818 0Q502.691 0 418.91 335.127q125.673-167.564 293.236-125.672c63.737 15.918 109.29 62.184 159.713 113.353 82.138 83.379 177.214 179.883 384.87 179.883q335.126 0 418.908-335.127-125.672 167.564-293.236 125.672c-63.736-15.918-109.289-62.184-159.713-113.353C1140.55 96.504 1045.473 0 837.818 0M418.91 502.69Q83.782 502.69 0 837.819q125.673-167.564 293.236-125.673c63.737 15.95 109.29 62.185 159.713 113.354 82.138 83.379 177.214 179.883 384.87 179.883q335.126 0 418.908-335.127-125.673 167.564-293.236 125.672c-63.736-15.918-109.289-62.184-159.713-113.353-82.138-83.38-177.214-179.885-384.869-179.885"/></svg>