<svg xmlns="http://www.w3.org/2000/svg" width="200" height="200" class="icon" viewBox="0 0 1039 1024"><path fill="#040507" d="M478.666 0h62.774a175.4 175.4 0 0 0 35.31 23.54q75.391-28.813 121.625 35.31c50.455-2.989 81.842 19.24 94.161 66.698q102.365-8.628 105.931 94.16c42.89 20.371 63.81 54.379 62.774 102.008 23.046 26.554 33.514 57.94 31.387 94.161 17.514 23.211 31.897 46.751 43.157 70.621v86.314C993.868 765.23 881.401 899.927 698.375 976.92c-2.778 12.758-2.778 27.141 0 43.157h-360.95a71.46 71.46 0 0 1 7.847-39.234C157.844 901.175 42.764 762.547.015 564.966v-78.468a1341 1341 0 0 1 39.234-66.697c-14.187-36.935-7.65-69.624 19.617-98.085-1.036-47.63 19.883-81.637 62.774-102.007q10.84-95.22 105.93-94.161c12.5-46.94 43.887-69.177 94.162-66.697q46.235-64.125 121.624-35.31A175.4 175.4 0 0 0 478.666 0" opacity=".913"/><path fill="#FCFCFC" d="M486.513 31.387a144.7 144.7 0 0 1 47.08 3.923l35.311 35.31q71.916-57.024 105.931 27.464c56.387-16.87 87.774 4.05 94.16 62.774 72.92-12.084 101.695 17.993 86.315 90.238q74.684 0 62.774 70.62a250 250 0 0 0 35.31 39.234c4.41 18.566 3.108 36.88-3.923 54.927a245.6 245.6 0 0 0 35.31 39.234c3.877 12.822 5.18 25.894 3.924 39.234H47.095c-.258-28.264 10.201-51.804 31.388-70.62q-38.466-60.69 23.54-98.085c-10.068-48.901 10.852-73.752 62.774-74.544-15.388-72.237 13.378-102.314 86.314-90.238 6.387-58.725 37.774-79.644 94.16-62.774 22.01-56.747 57.321-65.897 105.932-27.463a250 250 0 0 0 35.31-39.234"/><path fill="#252525" d="M282.498 258.943h31.387c2.181 14.485-3.053 24.952-15.694 31.387-12.64-6.435-17.875-16.902-15.693-31.387"/><path fill="#242424" d="M345.272 274.636h31.387c2.181 14.485-3.053 24.953-15.694 31.387-12.64-6.434-17.875-16.902-15.693-31.387"/><path fill="#1B1B1B" d="M227.57 337.41h23.54q-.868 47.565-31.386 15.693a348 348 0 0 0 7.847-15.693"/><path fill="#222" d="M721.915 337.41h31.387c2.182 14.485-3.052 24.953-15.693 31.387-12.641-6.434-17.875-16.902-15.694-31.387"/><path fill="#171717" d="M290.345 400.184h23.54q-.868 47.565-31.387 15.693a348 348 0 0 0 7.847-15.693"/><path fill="#1890FD" d="M337.425 933.762q-38.654-29.884-94.16-58.85a1482 1482 0 0 1-94.162-82.39C78.17 718.525 41.548 629.598 39.25 525.731h957.3c-24.968 227.704-147.895 372.87-368.796 435.494-75.737 15.152-151.592 15.152-227.556 0-23.352-5.532-44.271-14.681-62.774-27.464"/><path fill="#1991E3" d="M149.103 792.521a1482 1482 0 0 0 94.161 82.39q55.507 28.968 94.161 58.851-108.307-37.604-184.398-125.547a19.04 19.04 0 0 1-3.924-15.694"/></svg>