<svg xmlns="http://www.w3.org/2000/svg" xml:space="preserve" viewBox="0 0 560.37 262.73"><linearGradient id="a" x1="77.966" x2="57.618" y1="155.856" y2="259.943" gradientTransform="matrix(1 0 0 -1 0 393.408)" gradientUnits="userSpaceOnUse"><stop offset=".005" style="stop-color:#008fc1"/><stop offset="1" style="stop-color:#00f879"/></linearGradient><path d="M70.38 84.8a99.3 99.3 0 0 1 21.55-1.18c7.18.4 13.68 2.08 19.51 5.03 5.82 2.96 10.53 7.43 14.12 13.41s5.39 14.03 5.39 24.14c0 6.95-1.84 14.49-5.51 22.62s-8.5 16.29-14.48 24.48c-5.99 8.19-12.85 16.21-20.59 24.06s-15.72 14.91-23.94 21.2-16.28 11.53-24.18 15.74-15.13 6.85-21.67 7.93q-9.105 1.5-13.53-1.56c-4.425-3.06-4.91-4.57-5.86-7.57q-1.68-5.025-.96-11.97c1.11.45 2.55.72 4.31.81 1.6.24 3.51.34 5.75.28 2.23-.05 4.87-.33 7.9-.83 4.79-.79 9.89-2.52 15.32-5.18-3.19-.49-6.15-1.64-8.86-3.47-2.72-1.83-4.07-4.89-4.07-9.19 0-2.78.8-6.96 2.39-12.53s3.63-11.72 6.1-18.45 5.27-13.69 8.38-20.91c3.11-7.21 6.1-13.77 8.98-19.68 2.87-5.91 5.54-10.8 8.02-14.69 2.47-3.89 4.35-5.93 5.62-6.14 2.07-.34 3.91-.17 5.51.52 1.59.69 3.03 1.43 4.31 2.23 1.44 1.16 2.71 2.46 3.83 3.92-5.9 12.98-11.17 25.29-15.8 36.92-2.08 4.89-4.07 9.9-5.98 15.01a328 328 0 0 0-5.15 14.79c-1.51 4.74-2.71 9.08-3.59 13.01s-1.31 7.23-1.31 9.89c0 .76.03 1.45.12 2.07.08.62.2 1.23.36 1.84 5.58-3.45 11.25-7.61 17-12.47a188 188 0 0 0 16.4-15.69c5.18-5.59 10.05-11.46 14.6-17.57 4.55-6.12 8.53-12.24 11.97-18.38 3.43-6.13 6.1-12.06 8.02-17.82 1.91-5.75 2.87-11.09 2.87-16.02 0-3.29-.76-6-2.27-8.16-1.52-2.15-3.63-3.76-6.35-4.83s-5.82-1.66-9.34-1.78c-3.51-.12-7.34.16-11.49.85-11.49 1.9-21.82 5.18-31 9.85s-16.84 9.69-22.99 15.07c-6.14 5.37-10.69 10.58-13.64 15.62-2.95 5.03-4.03 8.88-3.23 11.53-2.4-.62-4.55-1.53-6.46-2.73-1.59-1-3.07-2.37-4.43-4.11C.67 142.98 0 140.72 0 137.93c0-2.78 1.59-6.77 4.79-11.97 3.19-5.2 7.82-10.55 13.88-16.03 6.06-5.49 13.44-10.59 22.14-15.31s18.56-8.01 29.57-9.82" style="fill:url(#a)"/><linearGradient id="b" x1="180.836" x2="160.488" y1="175.966" y2="280.053" gradientTransform="matrix(1 0 0 -1 0 393.408)" gradientUnits="userSpaceOnUse"><stop offset=".005" style="stop-color:#008fc1"/><stop offset="1" style="stop-color:#00f879"/></linearGradient><path d="M202.77 130.29c3.19-.53 5.86-.11 8.02 1.24 2.15 1.35 3.07 2.75 2.75 4.19-.16.53-1 2.37-2.51 5.53s-3.51 7-5.98 11.51c-2.48 4.52-5.39 9.36-8.74 14.52-3.35 5.17-6.98 10.06-10.89 14.69-3.92 4.63-8.02 8.6-12.33 11.89-4.31 3.3-8.7 5.32-13.16 6.06-3.99.66-8.14.55-12.45-.32s-8.22-2.43-11.73-4.7c-3.51-2.26-6.38-5.27-8.62-9.01-2.23-3.74-3.35-8.14-3.35-13.2 0-3.66.64-7.78 1.91-12.35 1.28-4.57 2.96-9.24 5.03-14 2.08-4.76 4.51-9.43 7.3-14 2.79-4.56 5.7-8.68 8.74-12.34 3.03-3.66 6.14-6.7 9.34-9.12 3.19-2.43 6.14-3.86 8.85-4.31 8.62-1.42 15-.92 19.15 1.49 4.15 2.42 6.66 5.86 7.54 10.32q1.32 6.705-1.2 15.18a71 71 0 0 1-7.06 16.14c-3.03 5.12-6.5 9.54-10.41 13.29-3.91 3.74-7.54 5.89-10.89 6.44-3.67.6-6.74.45-9.22-.47s-4.51-2.01-6.1-3.26c-.8 3.8-1.28 7.35-1.44 10.66-.16 3.32.12 6.14.84 8.49s1.87 4.12 3.47 5.31c1.59 1.19 3.83 1.55 6.71 1.07 3.03-.5 6.14-2.02 9.33-4.57s6.35-5.69 9.46-9.43 6.1-7.83 8.98-12.29c2.87-4.46 5.51-8.84 7.9-13.15s4.51-8.39 6.34-12.23c1.82-3.85 3.3-6.94 4.42-9.27m-28.25-16.02c-2.08.34-4.35 1.95-6.82 4.83-2.48 2.87-4.95 6.44-7.42 10.7-2.48 4.27-4.75 9.03-6.82 14.3s-3.83 10.49-5.26 15.66c1.75.47 3.43.32 5.03-.45 2.07-.72 4.23-2.37 6.46-4.95s4.39-5.56 6.46-8.93 3.91-6.96 5.51-10.77c1.59-3.8 2.87-7.23 3.83-10.3s1.4-5.57 1.32-7.52c-.1-1.94-.86-2.8-2.29-2.57" style="fill:url(#b)"/><linearGradient id="c" x1="246.519" x2="226.172" y1="188.806" y2="292.894" gradientTransform="matrix(1 0 0 -1 0 393.408)" gradientUnits="userSpaceOnUse"><stop offset=".005" style="stop-color:#008fc1"/><stop offset="1" style="stop-color:#00f879"/></linearGradient><path d="M254.23 90.9c4.47-1.36 8.38-1.82 11.73-1.36 2.71.31 5.18 1.45 7.42 3.42s3.11 5.65 2.64 11.03c-.32 4.35-1.84 9.5-4.54 15.44-2.72 5.95-6.07 12.09-10.06 18.44s-8.38 12.63-13.17 18.86c-4.79 6.22-9.57 11.85-14.36 16.87-4.79 5.03-9.3 9.18-13.53 12.47q-6.345 4.935-10.41 5.61c-.96.16-1.67.21-2.15.16q-.72.12-.96-.03l-.48.08c-2.56-.34-4.87-1.31-6.94-2.93a23 23 0 0 1-5.27-5.77 26.8 26.8 0 0 1-3.23-6.96c-.72-2.41-1.08-4.56-1.08-6.46q0-2.085 1.56-8.22c1.56-6.135 2.43-8.74 4.19-13.96s3.75-10.73 5.98-16.53 4.51-11.17 6.82-16.1 4.63-9.04 6.94-12.33c2.31-3.28 4.43-5.09 6.35-5.41 2.07-.34 3.9-.07 5.51.8 1.59.88 3.03 1.9 4.31 3.08 1.59 1.38 2.95 2.99 4.07 4.83-2.23 2.14-4.55 5.49-6.95 10.05-2.39 4.57-4.75 9.63-7.06 15.19-2.31 5.57-4.47 11.26-6.46 17.09-2 5.83-3.59 11.14-4.79 15.96-1.2 4.81-2 8.73-2.39 11.77q-.6 4.56.84 4.32c1.59-.27 3.91-2.13 6.94-5.6s6.34-7.9 9.93-13.3 7.22-11.4 10.9-18.01q5.505-9.915 9.69-19.71c4.185-9.795 4.99-12.7 6.58-18.53 1.59-5.81 2.07-10.57 1.43-14.26" style="fill:url(#c)"/><linearGradient id="d" x1="328.814" x2="308.466" y1="204.894" y2="308.981" gradientTransform="matrix(1 0 0 -1 0 393.408)" gradientUnits="userSpaceOnUse"><stop offset=".005" style="stop-color:#008fc1"/><stop offset="1" style="stop-color:#00f879"/></linearGradient><path d="M355.02 62.73c-3.36.43-6.87.88-10.54 1.36-3.2.4-6.74.89-10.65 1.47-3.92.58-7.94 1.28-12.09 2.09a741 741 0 0 0-10.66 21.85c-3.59 7.67-6.9 15.26-9.93 22.78a736 736 0 0 0-8.26 21.36c-2.48 6.73-4.47 12.65-5.98 17.76-1.52 5.12-2.43 9.16-2.75 12.12-.32 2.97.16 4.34 1.44 4.12 1.75-.29 3.67-1.64 5.74-4.07s4.19-5.43 6.34-9.01c2.16-3.58 4.35-7.54 6.58-11.89 2.24-4.35 4.27-8.54 6.1-12.57s3.48-7.75 4.91-11.14c1.44-3.4 2.55-5.98 3.36-7.76 3.19-.53 5.9-.12 8.14 1.22 2.23 1.34 3.11 2.75 2.63 4.22-.16.78-.95 2.88-2.39 6.27-1.44 3.4-3.27 7.4-5.51 12-2.23 4.6-4.79 9.51-7.66 14.72-2.88 5.21-5.83 10.06-8.86 14.54s-6.1 8.28-9.21 11.38-6.03 4.88-8.74 5.32c-3.19.53-6.07-.01-8.62-1.62-2.55-1.6-4.7-3.71-6.46-6.33-1.75-2.61-3.07-5.4-3.95-8.35-.87-2.96-1.31-5.44-1.31-7.47 0-2.52.95-6.85 2.87-12.98s4.39-13.17 7.42-21.13 6.46-16.42 10.29-25.4q5.745-13.455 11.49-25.59c-4.79.92-9.5 1.85-14.13 2.8s-9.01 1.96-13.16 3.02c-.48-1.44-.64-2.86-.48-4.28.16-1.16.52-2.33 1.08-3.49.56-1.17 1.72-2.08 3.47-2.75 1.28-.46 4.55-1.28 9.82-2.47 5.27-1.18 11.57-2.51 18.91-3.97 4.15-8.14 7.94-14.86 11.38-20.17 3.43-5.3 6.02-8.1 7.78-8.39 2.07-.34 3.95-.08 5.63.78 1.67.86 3.15 1.89 4.43 3.06 1.44 1.41 2.79 3.02 4.07 4.83-3.03 4.29-6.31 9.45-9.82 15.46 4.63-.76 9.29-1.53 14-2.31s9.69-1.35 14.96-1.71c1.28.93 2.07 1.93 2.39 3.02.31.96.28 2.04-.12 3.24s-1.72 2.55-3.95 4.06" style="fill:url(#d)"/><linearGradient id="e" x1="371.33" x2="350.982" y1="213.206" y2="317.293" gradientTransform="matrix(1 0 0 -1 0 393.408)" gradientUnits="userSpaceOnUse"><stop offset=".005" style="stop-color:#008fc1"/><stop offset="1" style="stop-color:#00f879"/></linearGradient><path d="M410.32 105.19c0 1.9-.96 4.33-2.87 7.3-1.92 2.97-4.55 5.96-7.9 8.98s-7.3 5.91-11.85 8.68-9.46 4.97-14.72 6.6a86.6 86.6 0 0 1-6.7 11.53c-2.56 3.71-5.31 7.07-8.26 10.08s-6.1 5.53-9.46 7.53a30.5 30.5 0 0 1-10.77 3.96c-2.56.42-5.51.05-8.85-1.1-3.35-1.15-6.43-3.02-9.22-5.59s-5.07-5.83-6.82-9.78-2.39-8.48-1.92-13.62c.48-6.77 1.92-13.8 4.31-21.09 2.39-7.28 5.46-14.01 9.22-20.19 3.75-6.18 8.1-11.45 13.05-15.8 4.94-4.35 10.3-7 16.04-7.95 4.47-.74 8.5-.67 12.09.19s6.7 2.28 9.34 4.24c2.63 1.97 4.71 4.44 6.22 7.42 1.52 2.97 2.43 6.2 2.76 9.68.31 3.11 0 7.15-.96 12.11s-2.48 10.27-4.55 15.92c4.62-2.15 8.89-5.22 12.81-9.22 3.9-3.99 6.66-9.03 8.26-15.11 2.08-.21 3.91-.14 5.51.23 1.28.3 2.47.79 3.59 1.49 1.09.69 1.65 1.87 1.65 3.51m-76.13 54.82c2.39-.39 5.07-2.57 8.02-6.54 2.95-3.96 5.86-8.83 8.74-14.62-2.55-.34-4.15-1.12-4.79-2.34-.64-1.23-.68-2.45-.11-3.68.56-1.23 1.59-2.28 3.11-3.16 1.51-.88 3.23-1.23 5.15-1.04.64.15 1.11.2 1.44.14 2.39-5.58 4.46-11.19 6.22-16.86 1.75-5.66 2.99-10.73 3.71-15.21s.75-8.05.12-10.73c-.64-2.67-2.15-3.82-4.55-3.42-2.39.39-5.19 2.66-8.38 6.79s-6.31 9.16-9.34 15.09c-3.03 5.94-5.79 12.24-8.26 18.9-2.48 6.66-4.31 12.81-5.51 18.44s-1.51 10.2-.95 13.71c.55 3.53 2.35 5.03 5.38 4.53" style="fill:url(#e)"/><linearGradient id="f" x1="446.298" x2="425.95" y1="227.861" y2="331.948" gradientTransform="matrix(1 0 0 -1 0 393.408)" gradientUnits="userSpaceOnUse"><stop offset=".005" style="stop-color:#008fc1"/><stop offset="1" style="stop-color:#00f879"/></linearGradient><path d="M485.72 92.76c0 1.9-.96 4.33-2.87 7.3-1.92 2.97-4.55 5.97-7.9 8.98-3.35 3.02-7.3 5.91-11.85 8.68s-9.46 4.97-14.72 6.6a87 87 0 0 1-6.7 11.54c-2.56 3.71-5.31 7.07-8.26 10.08q-4.425 4.53-9.45 7.53a30.7 30.7 0 0 1-10.77 3.96c-2.56.42-5.51.05-8.86-1.1-3.35-1.16-6.43-3.02-9.21-5.59-2.8-2.57-5.07-5.83-6.82-9.78q-2.625-5.91-1.92-13.62c.48-6.78 1.92-13.81 4.31-21.1 2.39-7.28 5.46-14.01 9.22-20.19 3.75-6.18 8.1-11.45 13.04-15.8s10.3-7 16.04-7.95c4.47-.74 8.5-.67 12.09.19s6.7 2.28 9.33 4.24c2.64 1.97 4.71 4.44 6.23 7.42 1.52 2.97 2.43 6.21 2.75 9.69.32 3.11 0 7.15-.96 12.1-.95 4.96-2.48 10.27-4.54 15.92 4.62-2.15 8.89-5.22 12.8-9.22 3.91-3.99 6.66-9.03 8.26-15.11 2.07-.21 3.91-.14 5.51.23 1.28.3 2.47.79 3.59 1.49 1.1.69 1.66 1.87 1.66 3.51m-76.12 54.83c2.39-.39 5.06-2.57 8.02-6.54 2.95-3.96 5.87-8.83 8.74-14.61-2.56-.34-4.15-1.12-4.79-2.34s-.68-2.45-.12-3.68 1.59-2.28 3.11-3.17c1.51-.88 3.23-1.23 5.14-1.04q.96.225 1.44.15c2.39-5.58 4.47-11.19 6.23-16.86 1.75-5.66 2.99-10.73 3.71-15.21s.75-8.05.12-10.73c-.64-2.67-2.15-3.82-4.55-3.42-2.39.39-5.19 2.66-8.38 6.79-3.2 4.13-6.31 9.16-9.34 15.09-3.03 5.94-5.79 12.24-8.26 18.9-2.48 6.66-4.31 12.81-5.51 18.44s-1.52 10.2-.95 13.72c.56 3.5 2.35 5.01 5.39 4.51" style="fill:url(#f)"/><linearGradient id="g" x1="513.63" x2="493.282" y1="241.024" y2="345.111" gradientTransform="matrix(1 0 0 -1 0 393.408)" gradientUnits="userSpaceOnUse"><stop offset=".005" style="stop-color:#008fc1"/><stop offset="1" style="stop-color:#00f879"/></linearGradient><path d="M518.52.14c2.07-.34 3.91-.08 5.51.8 1.59.88 3.03 1.91 4.31 3.08 1.59 1.38 2.95 2.99 4.07 4.83-3.99 5.59-8.26 12.64-12.81 21.16-4.54 8.53-8.98 17.54-13.29 27.03-4.31 9.5-8.38 18.95-12.21 28.37-3.83 9.41-7.02 17.91-9.57 25.47-2.56 7.56-4.28 13.63-5.15 18.2-.88 4.57-.52 6.72 1.08 6.46 1.75-.29 3.67-1.64 5.74-4.07s4.23-5.44 6.46-9.03 4.43-7.55 6.59-11.89c2.15-4.34 4.19-8.53 6.1-12.57s3.59-7.76 5.02-11.16c1.44-3.4 2.47-5.97 3.11-7.72 3.19-.53 5.9-.12 8.14 1.22 2.23 1.34 3.19 2.73 2.87 4.17-.32.81-1.2 2.92-2.63 6.31-1.44 3.4-3.27 7.4-5.51 12s-4.75 9.5-7.54 14.71c-2.79 5.2-5.71 10.04-8.74 14.52s-6.15 8.28-9.34 11.4c-3.19 3.11-6.15 4.9-8.86 5.34-3.19.53-6.03-.02-8.5-1.64-2.47-1.61-4.59-3.73-6.34-6.35s-3.07-5.4-3.95-8.35c-.87-2.96-1.31-5.44-1.31-7.46 0-2.78 1.16-7.77 3.47-14.98 2.31-7.2 5.23-15.36 8.74-24.47s7.46-18.64 11.85-28.59 8.7-19.07 12.93-27.34c4.23-8.28 8.1-15.18 11.61-20.69 3.52-5.53 6.23-8.44 8.15-8.76" style="fill:url(#g)"/><linearGradient id="h" x1="538.581" x2="518.233" y1="245.901" y2="349.988" gradientTransform="matrix(1 0 0 -1 0 393.408)" gradientUnits="userSpaceOnUse"><stop offset=".005" style="stop-color:#008fc1"/><stop offset="1" style="stop-color:#00f879"/></linearGradient><path d="M542.22 44.39c2.23-.37 4.31-.2 6.23.49 1.91.7 3.67 1.55 5.26 2.55 1.75 1.1 3.43 2.47 5.03 4.1-4.31 2.36-8.14 5.26-11.49 8.72-2.87 2.88-5.5 6.47-7.9 10.78s-3.59 9.5-3.59 15.57c0 2.65.4 5.56 1.2 8.71.8 3.16 1.64 6.31 2.51 9.45.88 3.14 1.71 6.16 2.51 9.06s1.2 5.43 1.2 7.58-.24 4.21-.72 6.18-1.35 3.77-2.63 5.36c-1.28 1.6-3.11 2.98-5.51 4.13s-5.43 2.03-9.1 2.64c-3.51.58-6.82.49-9.93-.26s-5.95-1.86-8.5-3.34-4.71-3.21-6.46-5.19c-1.75-1.99-3.15-3.91-4.19-5.76q-1.545-2.775-1.8-5.01c-.16-1.49.24-2.51 1.2-3.04.64-.36 1.47.01 2.51 1.1 1.04 1.1 2.27 2.34 3.71 3.75a25.2 25.2 0 0 0 4.9 3.74c1.84 1.09 3.95 1.44 6.34 1.04 2.55-.42 4.87-1.72 6.95-3.89 2.07-2.17 3.11-5.22 3.11-9.14 0-2.4-.48-4.79-1.44-7.16s-1.95-4.86-2.99-7.47-2.03-5.35-2.99-8.23-1.44-6.08-1.44-9.63c0-4.55.96-8.98 2.87-13.27s4.31-8.1 7.18-11.42 5.95-6.07 9.22-8.25c3.28-2.16 6.19-3.47 8.75-3.89" style="fill:url(#h)"/><linearGradient id="i" x1="465.525" x2="459.264" y1="135.192" y2="212.409" gradientTransform="matrix(1 0 0 -1 0 393.408)" gradientUnits="userSpaceOnUse"><stop offset=".005" style="stop-color:#008fc1"/><stop offset="1" style="stop-color:#00f879"/></linearGradient><path d="m549.25 161.49-174.94 31.16c-5.89 1.05-10.68 6.68-10.68 12.57v48.57c0 5.9 4.79 9.82 10.68 8.77l174.94-31.16c5.9-1.05 10.68-6.68 10.68-12.58v-48.57c0-5.89-4.77-9.82-10.68-8.76m-117.74 41.53c-.58 2.44-1.33 5.2-2.25 8.27q-1.455 4.845-3.09 9.63c-1.13 3.35-2.27 6.53-3.39 9.55-1.13 3.02-2.21 5.68-3.23 7.99s-1.82 3.92-2.42 4.86q-1.185 1.185-3.6 2.37-2.43 1.2-5.34 1.71c-2.36.42-4.37.43-6.03.04-1.66-.4-2.8-1.14-3.39-2.24-.6-1.18-1.36-2.71-2.25-4.59-.9-1.87-1.85-3.97-2.81-6.29-.97-2.33-1.96-4.8-2.98-7.41s-2-5.29-2.95-8.01c-.93-2.66-1.81-5.33-2.66-8.02-.84-2.62-1.55-5.08-2.15-7.38.79-.92 1.9-1.83 3.36-2.74s3.02-1.52 4.67-1.81c2.09-.37 3.77-.24 5.06.38 1.29.63 2.24 2.07 2.84 4.32 1.53 5.13 3.05 10.05 4.57 14.74 1.53 4.69 3.12 9.6 4.79 14.71l.49-.08c1.47-5.49 3.01-11.45 4.6-17.9 1.6-6.46 3.11-12.86 4.55-19.21 1.02-.64 2.1-1.24 3.23-1.79 1.13-.54 2.41-.95 3.84-1.2 2.03-.36 3.77-.21 5.23.46s2.17 2.04 2.17 4.11c0 1.25-.27 3.1-.86 5.53m58.23 10.46c0 3-.5 5.83-1.52 8.49a21.9 21.9 0 0 1-4.43 7.1c-1.95 2.07-4.3 3.84-7.07 5.28q-4.17 2.16-9.42 3.09c-3.52.62-6.66.72-9.42.26-2.78-.46-5.13-1.38-7.07-2.76-1.93-1.39-3.42-3.23-4.43-5.52-1.02-2.29-1.52-4.94-1.52-7.95v-32.09c.64-.25 1.61-.59 2.91-1 1.29-.41 2.56-.74 3.81-.96 2.78-.5 4.77-.37 6 .35 1.23.74 1.83 2.46 1.83 5.18v25.65q0 4.02 2.22 5.88c1.47 1.23 3.37 1.65 5.69 1.24 2.31-.41 4.21-1.5 5.68-3.26 1.48-1.77 2.22-3.99 2.22-6.67v-31.82c.65-.25 1.62-.59 2.91-1s2.56-.74 3.82-.96c2.78-.5 4.77-.37 5.99.35 1.22.74 1.83 2.46 1.83 5.18v25.94zm49.55 8.71c-.88 1.08-2.1 1.76-3.67 2.05l-24.27 4.32c-2.4.42-4.3.07-5.69-1.08-1.38-1.13-2.07-2.91-2.07-5.3v-35.15c0-2.4.69-4.42 2.07-6.05 1.39-1.64 3.29-2.67 5.69-3.1l27.45-4.89c.36.54.7 1.25 1 2.15s.45 1.93.45 3.07c0 2.07-.44 3.67-1.31 4.78-.89 1.1-2.11 1.79-3.68 2.07l-17.54 3.12v7.7l18.71-3.34c.38.54.72 1.25 1.04 2.14.33.89.48 1.91.48 3.07 0 2.07-.45 3.65-1.35 4.71s-2.12 1.73-3.64 2l-15.25 2.71v8.73l21.34-3.8c.42.58.78 1.33 1.08 2.27s.45 1.99.45 3.14c.03 2.05-.41 3.61-1.29 4.68" style="fill:url(#i)"/></svg>