<svg xmlns="http://www.w3.org/2000/svg" width="200" height="200" class="icon" viewBox="0 0 1024 1024"><path d="M0 232.732A232.73 232.73 0 0 1 232.732 0h558.536A232.73 232.73 0 0 1 1024 232.732v558.536A232.73 232.73 0 0 1 791.268 1024H232.732A232.73 232.73 0 0 1 0 791.268zM232.732 93.07A139.66 139.66 0 0 0 93.07 232.732v558.536A139.66 139.66 0 0 0 232.732 930.93h558.536A139.66 139.66 0 0 0 930.93 791.268V232.732A139.66 139.66 0 0 0 791.268 93.07z"/><path d="M549.575 245.845c0-25.799 20.935-46.734 46.734-46.734h116.822a140.203 140.203 0 0 1 140.202 140.203v116.821a46.734 46.734 0 0 1-93.468 0V339.314c0-25.828-20.907-46.734-46.734-46.734H596.309a46.734 46.734 0 0 1-46.734-46.735m-303.73 303.702c25.8 0 46.735 20.935 46.735 46.734v116.821c0 25.828 20.906 46.734 46.734 46.734h116.821a46.734 46.734 0 0 1 0 93.469H339.314A140.203 140.203 0 0 1 199.11 713.13V596.309c0-25.799 20.935-46.734 46.734-46.734z"/></svg>